<svg xmlns="http://www.w3.org/2000/svg" version="1.1" xlink="http://www.w3.org/1999/xlink" xmlns:svgjs="http://svgjs.com/svgjs" width="100%" height="100%" preserveAspectRatio="xMidYMid meet" viewBox="-5.24685560776561e-7 -5.284440476316377e-7 299.9993896484375 78.2065200805664" overflow="visible"><defs id="SvgjsDefs102993"></defs><g id="SvgjsG102994" transform="scale(0.6493506493506493)" opacity="1"><g id="SvgjsG102995" class="RmjGSWcaI" transform="translate(-11.632762442073997, -6.794737962309955) scale(1.3591263514515723)" light-content="false" non-strokable="false" fill="#00c7fc"><path d="M77.509 7.697C52.473-1.721 27.27 14.001 30.728 47.358 34.186 80.715 8.559 93.527 8.559 93.527s68.339 4.067 82.984-43.526c0 0 8.135-33.966-14.034-42.304zM48.628 18.681l8.949 2.236c-6.917 5.287-8.949-2.236-8.949-2.236zm25.626 15.41l-7.776-2.371-8.026 2.316-4.842-4.987 4.003 2.459 8.585-2.811 9.277 2.696 4.475-2.345-5.696 5.043zm0-13.174l8.948-2.236s-2.033 7.523-8.948 2.236z"></path></g><rect id="SvgjsRect102996" width="2.6332160543456" height="120.43803589365905" fill="#ffffff" transform="translate(148.9983850067864, 0) scale(1)" light-content="false"></rect><g id="SvgjsG102997" class="text" transform="translate(321.7790347676248, 59.19989496396543) scale(1)" light-content="false" fill="#ffffff"><path d="M-89.42 -0.47C-89.42 -0.79 -89.5 -0.95 -89.66 -0.95C-91.4 -0.95 -92.85 -1.2 -94.01 -1.7C-95.16 -2.2 -96.77 -3.48 -98.82 -5.53C-100.88 -7.58 -103.88 -10.98 -107.83 -15.72L-119.28 -29.54L-105.07 -42.97C-101.59 -46.61 -97.48 -48.42 -92.74 -48.42C-92.64 -48.42 -92.58 -48.58 -92.58 -48.9C-92.58 -49.21 -92.64 -49.37 -92.74 -49.37L-95.43 -49.29C-97.11 -49.19 -98.75 -49.14 -100.33 -49.14C-101.96 -49.14 -103.72 -49.19 -105.62 -49.29L-108.54 -49.37C-108.7 -49.37 -108.78 -49.21 -108.78 -48.9C-108.78 -48.58 -108.7 -48.42 -108.54 -48.42C-107.07 -48.42 -105.99 -48.33 -105.3 -48.15C-104.62 -47.96 -104.28 -47.63 -104.28 -47.16C-104.28 -46.48 -105.12 -45.24 -106.8 -43.45L-124.89 -26.07L-124.89 -42.82C-124.84 -44.4 -124.66 -45.57 -124.34 -46.33C-124.02 -47.1 -123.42 -47.63 -122.52 -47.95C-121.63 -48.27 -120.21 -48.42 -118.26 -48.42C-118.15 -48.42 -118.1 -48.58 -118.1 -48.9C-118.1 -49.21 -118.15 -49.37 -118.26 -49.37L-121.89 -49.29C-124 -49.19 -125.71 -49.14 -127.03 -49.14C-128.34 -49.14 -130 -49.19 -132 -49.29L-135.48 -49.37C-135.64 -49.37 -135.7 -49.21 -135.68 -48.9C-135.65 -48.58 -135.58 -48.42 -135.48 -48.42C-133.58 -48.42 -132.2 -48.28 -131.33 -47.99C-130.46 -47.7 -129.87 -47.19 -129.55 -46.45C-129.24 -45.71 -129.05 -44.55 -129 -42.97L-129 -6.4C-129 -4.82 -129.17 -3.65 -129.51 -2.88C-129.86 -2.12 -130.49 -1.61 -131.41 -1.34C-132.33 -1.08 -133.74 -0.95 -135.64 -0.95C-135.85 -0.95 -135.94 -0.79 -135.91 -0.47C-135.89 -0.16 -135.79 0 -135.64 0C-134.16 0 -133 -0.03 -132.16 -0.08L-127.26 -0.16L-122.44 -0.08C-121.71 -0.03 -120.68 0 -119.36 0C-119.26 0 -119.21 -0.16 -119.21 -0.47C-119.21 -0.79 -119.26 -0.95 -119.36 -0.95C-121.31 -0.95 -122.66 -1.08 -123.39 -1.34C-124.13 -1.61 -124.56 -2.05 -124.7 -2.69C-124.83 -3.32 -124.89 -4.56 -124.89 -6.4L-124.89 -24.33L-122.21 -26.86L-109.57 -11.45C-109.3 -11.14 -107.8 -9.27 -105.07 -5.85C-102.33 -2.42 -100.68 -0.59 -100.13 -0.36C-99.58 -0.12 -98.4 0 -96.61 0L-89.66 0C-89.5 0 -89.42 -0.16 -89.42 -0.47Z M-37.44 -0.47C-37.44 -0.79 -37.52 -0.95 -37.68 -0.95C-39.47 -0.95 -40.84 -1.12 -41.79 -1.46C-42.74 -1.8 -43.47 -2.36 -44 -3.12C-44.53 -3.88 -45.08 -5.06 -45.66 -6.64L-61.14 -50.08C-61.3 -50.35 -61.62 -50.48 -62.09 -50.48C-62.46 -50.48 -62.7 -50.37 -62.8 -50.16L-80.02 -9.48C-82.45 -3.79 -85.58 -0.95 -89.42 -0.95C-89.63 -0.95 -89.74 -0.79 -89.74 -0.47C-89.74 -0.16 -89.63 0 -89.42 0C-88.48 0 -87.26 -0.05 -85.79 -0.16C-84.1 -0.26 -82.63 -0.32 -81.37 -0.32C-80.26 -0.32 -78.65 -0.26 -76.55 -0.16C-74.76 -0.05 -73.55 0 -72.91 0C-72.65 0 -72.52 -0.16 -72.52 -0.47C-72.52 -0.79 -72.62 -0.95 -72.83 -0.95C-74.84 -0.95 -76.31 -1.2 -77.26 -1.7C-78.21 -2.2 -78.68 -3.16 -78.68 -4.58C-78.68 -6 -78.18 -7.98 -77.18 -10.51L-70.54 -26.78L-57.11 -26.78L-49.93 -6.64C-49.45 -5.32 -49.21 -4.27 -49.21 -3.48C-49.21 -2.53 -49.61 -1.87 -50.4 -1.5C-51.19 -1.13 -52.59 -0.95 -54.59 -0.95C-54.8 -0.95 -54.9 -0.79 -54.9 -0.47C-54.9 -0.16 -54.8 0 -54.59 0C-53.74 0 -52.48 -0.05 -50.79 -0.16C-49 -0.26 -47.53 -0.32 -46.37 -0.32C-45.21 -0.32 -43.63 -0.26 -41.63 -0.16C-39.84 -0.05 -38.52 0 -37.68 0C-37.52 0 -37.44 -0.16 -37.44 -0.47ZM-69.91 -28.28L-63.36 -44.24L-57.67 -28.28Z M-25.16 -34.36C-26.19 -35.89 -26.7 -37.71 -26.7 -39.81C-26.7 -42.39 -25.96 -44.61 -24.49 -46.45C-23.01 -48.29 -20.7 -49.21 -17.54 -49.21C-14.11 -49.21 -11.49 -48.12 -9.68 -45.94C-7.86 -43.75 -6.82 -41.29 -6.56 -38.55C-6.56 -38.34 -6.4 -38.25 -6.08 -38.27C-5.77 -38.3 -5.61 -38.42 -5.61 -38.63L-6.24 -47C-6.24 -47.58 -6.66 -48.03 -7.5 -48.35C-10.61 -49.61 -13.61 -50.24 -16.51 -50.24C-18.99 -50.24 -21.3 -49.78 -23.46 -48.86C-25.62 -47.94 -27.37 -46.56 -28.72 -44.71C-30.06 -42.87 -30.73 -40.63 -30.73 -38C-30.73 -35.73 -30.22 -33.77 -29.19 -32.11C-28.16 -30.45 -26.9 -29.07 -25.4 -27.96C-23.9 -26.86 -21.86 -25.54 -19.28 -24.01C-16.69 -22.49 -14.63 -21.16 -13.07 -20.03C-11.52 -18.89 -10.22 -17.47 -9.16 -15.76C-8.11 -14.05 -7.58 -12.01 -7.58 -9.64C-7.58 -6.37 -8.54 -3.98 -10.47 -2.45C-12.39 -0.92 -14.75 -0.16 -17.54 -0.16C-20.22 -0.16 -22.55 -0.82 -24.53 -2.13C-26.5 -3.45 -28.04 -5.13 -29.15 -7.19C-30.26 -9.24 -30.94 -11.4 -31.2 -13.67C-31.26 -13.88 -31.44 -13.96 -31.76 -13.9C-32.07 -13.85 -32.2 -13.72 -32.15 -13.51L-30.97 -3.24C-30.91 -2.92 -30.83 -2.63 -30.73 -2.37C-30.62 -2.11 -30.44 -1.9 -30.18 -1.74C-28.23 -0.74 -26.4 -0.04 -24.69 0.36C-22.97 0.75 -21.17 0.95 -19.28 0.95C-15.85 0.95 -12.93 0.36 -10.51 -0.83C-8.08 -2.01 -6.27 -3.62 -5.06 -5.65C-3.84 -7.68 -3.24 -9.93 -3.24 -12.4C-3.24 -14.77 -3.79 -16.81 -4.9 -18.52C-6 -20.24 -7.35 -21.66 -8.93 -22.79C-10.51 -23.92 -12.64 -25.25 -15.33 -26.78C-17.85 -28.15 -19.87 -29.37 -21.37 -30.45C-22.87 -31.53 -24.13 -32.84 -25.16 -34.36Z M4.46 -0.47C4.49 -0.16 4.56 0 4.66 0C6.14 0 7.29 -0.03 8.14 -0.08L13.11 -0.16L18.41 -0.08C19.3 -0.03 20.49 0 21.96 0C22.07 0 22.12 -0.16 22.12 -0.47C22.12 -0.79 22.07 -0.95 21.96 -0.95C19.96 -0.95 18.51 -1.08 17.62 -1.34C16.72 -1.61 16.13 -2.11 15.84 -2.84C15.55 -3.58 15.4 -4.77 15.4 -6.4L15.33 -42.82C15.38 -44.71 15.56 -46.05 15.88 -46.84C16.19 -47.63 16.77 -48.12 17.62 -48.31C18.46 -48.49 19.93 -48.58 22.04 -48.58C24.36 -48.58 26.54 -48.04 28.6 -46.96C30.65 -45.88 32.31 -44.32 33.57 -42.26C34.84 -40.21 35.47 -37.81 35.47 -35.07C35.47 -32.18 34.77 -29.73 33.38 -27.73C31.98 -25.73 30.16 -24.24 27.93 -23.26C25.69 -22.29 23.36 -21.8 20.93 -21.8C19.99 -21.8 19.12 -21.91 18.33 -22.12C18.27 -22.17 18.21 -22.12 18.13 -21.96C18.05 -21.8 18.01 -21.65 18.01 -21.49C18.01 -21.22 18.06 -21.09 18.17 -21.09C19.06 -20.83 20.3 -20.7 21.88 -20.7C24.67 -20.7 27.49 -21.29 30.33 -22.47C33.18 -23.66 35.56 -25.45 37.48 -27.85C39.41 -30.24 40.37 -33.18 40.37 -36.65C40.37 -40.97 38.77 -44.21 35.59 -46.37C32.4 -48.53 28.47 -49.61 23.78 -49.61C21.93 -49.61 19.7 -49.5 17.06 -49.29C15.06 -49.19 13.75 -49.14 13.11 -49.14C11.8 -49.14 10.14 -49.19 8.14 -49.29L4.66 -49.37C4.5 -49.37 4.44 -49.21 4.46 -48.9C4.49 -48.58 4.56 -48.42 4.66 -48.42C6.56 -48.42 7.97 -48.28 8.89 -47.99C9.81 -47.7 10.43 -47.19 10.74 -46.45C11.06 -45.71 11.24 -44.55 11.3 -42.97L11.3 -6.4C11.3 -4.82 11.13 -3.65 10.78 -2.88C10.44 -2.12 9.81 -1.61 8.89 -1.34C7.97 -1.08 6.56 -0.95 4.66 -0.95C4.5 -0.95 4.44 -0.79 4.46 -0.47Z M83.58 -11.85C83.31 -11.85 83.18 -11.77 83.18 -11.61C82.76 -8.56 81.85 -6.1 80.46 -4.23C79.06 -2.36 77.42 -1.42 75.52 -1.42L64.15 -1.42C62.25 -1.42 60.87 -1.55 60 -1.82C59.13 -2.08 58.54 -2.58 58.22 -3.32C57.9 -4.06 57.75 -5.19 57.75 -6.71L57.75 -24.96L70.23 -24.96C72.6 -24.96 74.26 -24.48 75.2 -23.5C76.15 -22.53 76.63 -20.86 76.63 -18.49C76.63 -18.27 76.78 -18.17 77.1 -18.17C77.42 -18.17 77.57 -18.27 77.57 -18.49C77.57 -19.43 77.52 -20.7 77.42 -22.28L77.34 -25.67L77.34 -29.39L77.34 -31.91C77.39 -32.13 77.26 -32.23 76.94 -32.23C76.63 -32.23 76.47 -32.13 76.47 -31.91C76.52 -29.91 76.11 -28.5 75.24 -27.69C74.38 -26.87 72.83 -26.46 70.62 -26.46L57.75 -26.46L57.75 -42.9C57.8 -44.48 57.97 -45.63 58.26 -46.37C58.55 -47.11 59.13 -47.61 60 -47.87C60.87 -48.14 62.25 -48.27 64.15 -48.27L72.76 -48.27C74.91 -48.27 76.64 -47.42 77.93 -45.74C79.22 -44.05 79.89 -41.82 79.94 -39.02C79.94 -38.81 80.13 -38.71 80.5 -38.71C80.81 -38.71 80.97 -38.81 80.97 -39.02L80.89 -41.87L80.66 -48.66C80.66 -48.92 80.62 -49.11 80.54 -49.21C80.46 -49.32 80.31 -49.37 80.1 -49.37L46.92 -49.37C46.82 -49.37 46.77 -49.21 46.77 -48.9C46.77 -48.58 46.82 -48.42 46.92 -48.42C48.87 -48.42 50.29 -48.28 51.19 -47.99C52.09 -47.7 52.7 -47.19 53.05 -46.45C53.39 -45.71 53.61 -44.55 53.72 -42.97L53.72 -6.4C53.72 -4.82 53.55 -3.65 53.2 -2.88C52.86 -2.12 52.24 -1.61 51.35 -1.34C50.45 -1.08 49.03 -0.95 47.08 -0.95C46.92 -0.95 46.84 -0.79 46.84 -0.47C46.84 -0.16 46.92 0 47.08 0L82.31 0C82.79 0 83.12 -0.09 83.3 -0.28C83.49 -0.46 83.58 -0.76 83.58 -1.18C83.58 -5.56 83.79 -8.98 84.21 -11.45C84.26 -11.56 84.21 -11.65 84.05 -11.73C83.89 -11.81 83.74 -11.85 83.58 -11.85Z M140.22 -0.47C140.22 -0.79 140.11 -0.95 139.9 -0.95C137.69 -0.95 135.41 -1.78 133.07 -3.44C130.73 -5.1 128.04 -7.79 125.01 -11.53C121.98 -15.27 118.21 -20.51 113.68 -27.25C116.1 -28.62 118.03 -30.41 119.48 -32.63C120.93 -34.84 121.65 -37.21 121.65 -39.74C121.65 -42.84 120.55 -45.26 118.34 -47C116.12 -48.74 112.96 -49.61 108.86 -49.61C107.59 -49.61 106.17 -49.53 104.59 -49.37C103.96 -49.32 103.22 -49.27 102.38 -49.21C101.54 -49.16 100.67 -49.14 99.77 -49.14C98.46 -49.14 96.74 -49.19 94.64 -49.29L90.77 -49.37C90.56 -49.37 90.45 -49.21 90.45 -48.9C90.45 -48.58 90.56 -48.42 90.77 -48.42C92.82 -48.42 94.32 -48.28 95.27 -47.99C96.22 -47.7 96.86 -47.19 97.21 -46.45C97.55 -45.71 97.74 -44.55 97.8 -42.97L97.8 -6.4C97.8 -4.82 97.6 -3.66 97.21 -2.92C96.81 -2.19 96.11 -1.67 95.11 -1.38C94.11 -1.09 92.58 -0.95 90.53 -0.95C90.32 -0.95 90.21 -0.79 90.21 -0.47C90.21 -0.16 90.32 0 90.53 0C92.16 0 93.45 -0.03 94.4 -0.08L99.61 -0.16L104.99 -0.08C105.88 -0.03 107.12 0 108.7 0C108.86 0 108.94 -0.16 108.94 -0.47C108.94 -0.79 108.83 -0.95 108.62 -0.95C106.57 -0.95 105.09 -1.08 104.2 -1.34C103.3 -1.61 102.7 -2.11 102.38 -2.84C102.06 -3.58 101.88 -4.77 101.83 -6.4L101.98 -25.28C103.14 -25.17 104.22 -25.12 105.22 -25.12C106.86 -25.12 108.59 -25.38 110.44 -25.91C115.76 -17.75 120.27 -11.39 123.98 -6.83C127.7 -2.28 130.24 0 131.61 0L139.9 0C140.11 0 140.22 -0.16 140.22 -0.47ZM106.57 -26.86C105.51 -26.86 103.93 -26.96 101.83 -27.17L101.83 -42.82C101.88 -44.66 102.06 -45.98 102.38 -46.77C102.7 -47.56 103.18 -48.06 103.84 -48.27C104.5 -48.48 105.57 -48.58 107.04 -48.58C110.2 -48.58 112.69 -47.67 114.51 -45.86C116.32 -44.04 117.23 -41.1 117.23 -37.05C117.23 -33.47 116.4 -30.87 114.74 -29.27C113.08 -27.66 110.36 -26.86 106.57 -26.86Z"></path></g><g id="SvgjsG102998" class="text" transform="translate(253.9934097676248, 111.1689409672726) scale(1)" light-content="false" fill="#00c7fc"><path d="M-50.64 -3.08C-50.69 -3.08 -50.73 -3.07 -50.76 -3.04C-51.86 -1.75 -52.76 -1.11 -53.44 -1.11C-53.84 -1.11 -54.13 -1.3 -54.31 -1.7C-54.49 -2.09 -54.59 -2.7 -54.59 -3.52L-54.31 -28.32C-54.31 -28.37 -54.36 -28.44 -54.47 -28.52C-54.57 -28.6 -54.67 -28.64 -54.74 -28.64L-54.82 -28.64L-59.72 -26.27C-59.83 -26.21 -59.86 -26.12 -59.82 -25.99C-59.78 -25.86 -59.71 -25.79 -59.6 -25.79C-59.55 -25.79 -59.51 -25.81 -59.48 -25.83C-58.64 -26.25 -57.94 -26.46 -57.39 -26.46C-56.94 -26.46 -56.61 -26.32 -56.38 -26.03C-56.16 -25.74 -56.06 -25.32 -56.09 -24.77L-56.25 -15.13C-56.93 -15.55 -57.77 -15.76 -58.77 -15.76C-60.35 -15.76 -61.86 -15.27 -63.3 -14.28C-64.73 -13.29 -65.9 -11.98 -66.79 -10.35C-67.69 -8.72 -68.13 -6.96 -68.13 -5.1C-68.13 -3.2 -67.7 -1.79 -66.83 -0.87C-65.96 0.05 -64.91 0.51 -63.67 0.51C-62.14 0.51 -60.75 -0.21 -59.5 -1.66C-58.25 -3.11 -57.21 -5.08 -56.36 -7.58L-56.44 -2.57C-56.47 -1.65 -56.3 -0.93 -55.93 -0.41C-55.56 0.1 -55.03 0.36 -54.35 0.36C-53.69 0.36 -53.06 0.11 -52.45 -0.38C-51.85 -0.86 -51.12 -1.65 -50.28 -2.73C-50.25 -2.78 -50.29 -2.85 -50.38 -2.94C-50.47 -3.03 -50.56 -3.08 -50.64 -3.08ZM-59.46 -2.9C-60.45 -1.76 -61.56 -1.18 -62.8 -1.18C-63.86 -1.18 -64.7 -1.63 -65.35 -2.51C-65.99 -3.39 -66.32 -4.71 -66.32 -6.48C-66.32 -8.14 -66.03 -9.57 -65.45 -10.78C-64.87 -11.99 -64.08 -12.92 -63.08 -13.55C-62.08 -14.18 -60.97 -14.5 -59.76 -14.5C-57.47 -14.5 -56.32 -13.39 -56.32 -11.18C-56.32 -9.99 -56.6 -8.6 -57.15 -7.01C-57.71 -5.42 -58.48 -4.05 -59.46 -2.9Z M-47.71 -1.6C-46.5 -0.16 -44.9 0.55 -42.9 0.55C-41.53 0.55 -40.26 0.2 -39.08 -0.51C-37.91 -1.22 -36.98 -2.24 -36.28 -3.57C-35.58 -4.9 -35.23 -6.46 -35.23 -8.26C-35.23 -10.65 -35.85 -12.5 -37.09 -13.8C-38.33 -15.11 -39.91 -15.76 -41.83 -15.76C-43.3 -15.76 -44.63 -15.38 -45.8 -14.63C-46.97 -13.88 -47.89 -12.84 -48.54 -11.51C-49.2 -10.18 -49.53 -8.72 -49.53 -7.11C-49.53 -4.87 -48.93 -3.03 -47.71 -1.6ZM-38.25 -2.09C-39.19 -0.99 -40.34 -0.43 -41.71 -0.43C-42.9 -0.43 -43.96 -0.84 -44.91 -1.66C-45.86 -2.48 -46.59 -3.52 -47.12 -4.8C-47.65 -6.08 -47.91 -7.4 -47.91 -8.77C-47.91 -10.61 -47.43 -12.08 -46.47 -13.17C-45.51 -14.27 -44.32 -14.81 -42.9 -14.81C-41.71 -14.81 -40.66 -14.42 -39.74 -13.65C-38.81 -12.87 -38.1 -11.85 -37.6 -10.59C-37.1 -9.32 -36.85 -7.99 -36.85 -6.6C-36.85 -4.7 -37.32 -3.2 -38.25 -2.09Z M-19.99 -0.39C-19.62 0.11 -19.09 0.36 -18.41 0.36C-17.75 0.36 -17.1 0.11 -16.47 -0.39C-15.84 -0.9 -15.13 -1.67 -14.34 -2.73C-14.29 -2.78 -14.3 -2.85 -14.4 -2.94C-14.49 -3.03 -14.59 -3.08 -14.69 -3.08L-14.77 -3.04C-15.88 -1.75 -16.77 -1.11 -17.46 -1.11C-17.85 -1.11 -18.14 -1.3 -18.33 -1.7C-18.51 -2.09 -18.6 -2.7 -18.6 -3.52L-18.52 -12.64C-18.52 -13.67 -18.68 -14.42 -19 -14.89C-19.31 -15.36 -19.81 -15.6 -20.5 -15.6C-21.21 -15.6 -21.91 -15.34 -22.59 -14.81C-23.28 -14.29 -24 -13.51 -24.77 -12.48C-24.82 -12.4 -24.81 -12.32 -24.75 -12.22C-24.68 -12.13 -24.59 -12.09 -24.49 -12.09C-24.44 -12.09 -24.38 -12.11 -24.33 -12.17C-23.15 -13.48 -22.22 -14.14 -21.57 -14.14C-20.75 -14.14 -20.35 -13.34 -20.38 -11.73L-20.5 -2.57C-20.53 -1.62 -20.35 -0.9 -19.99 -0.39ZM-21.03 -20.82C-20.76 -20.55 -20.37 -20.42 -19.87 -20.42C-19.39 -20.42 -19.02 -20.55 -18.76 -20.82C-18.5 -21.08 -18.37 -21.46 -18.37 -21.96C-18.37 -22.41 -18.5 -22.76 -18.76 -23.03C-19.02 -23.29 -19.39 -23.42 -19.87 -23.42C-20.37 -23.42 -20.76 -23.29 -21.03 -23.03C-21.31 -22.76 -21.45 -22.41 -21.45 -21.96C-21.45 -21.46 -21.31 -21.08 -21.03 -20.82Z M-2.69 -2.69L-2.73 -2.69C-3.44 -2.08 -4.09 -1.62 -4.68 -1.3C-5.27 -0.99 -5.96 -0.83 -6.75 -0.83C-7.7 -0.83 -8.37 -1.09 -8.75 -1.6C-9.13 -2.11 -9.32 -2.92 -9.32 -4.03L-9.28 -13.94C-8.07 -13.92 -6.52 -13.78 -4.62 -13.55C-4.31 -13.5 -4.02 -13.62 -3.77 -13.92C-3.52 -14.23 -3.38 -14.51 -3.36 -14.77C-3.36 -14.98 -3.48 -15.09 -3.71 -15.09C-6.4 -14.93 -8.26 -14.84 -9.28 -14.81L-9.28 -17.66C-9.28 -17.73 -9.4 -17.77 -9.64 -17.77C-9.87 -17.77 -9.98 -17.73 -9.95 -17.66C-10.01 -16.79 -10.32 -16.08 -10.88 -15.54C-11.45 -15 -12.19 -14.73 -13.11 -14.73C-13.22 -14.73 -13.27 -14.65 -13.27 -14.5C-13.27 -14.34 -13.22 -14.26 -13.11 -14.26C-12.48 -14.26 -12.04 -14.21 -11.79 -14.12C-11.54 -14.03 -11.38 -13.84 -11.32 -13.57C-11.25 -13.29 -11.2 -12.8 -11.18 -12.09L-11.22 -2.69C-11.22 -1.58 -10.91 -0.78 -10.31 -0.28C-9.7 0.22 -8.91 0.47 -7.94 0.47C-7.07 0.47 -6.2 0.25 -5.33 -0.2C-4.46 -0.65 -3.49 -1.37 -2.41 -2.37C-2.33 -2.42 -2.34 -2.49 -2.43 -2.57C-2.52 -2.65 -2.61 -2.69 -2.69 -2.69Z M26.9 -3.08L26.82 -3.04C25.71 -1.75 24.82 -1.11 24.13 -1.11C23.74 -1.11 23.45 -1.3 23.26 -1.7C23.08 -2.09 22.99 -2.7 22.99 -3.52L23.03 -10.55C23.05 -12.36 22.79 -13.69 22.24 -14.52C21.68 -15.35 20.83 -15.76 19.67 -15.76C18.01 -15.76 16.6 -14.94 15.42 -13.29C14.25 -11.65 13.43 -9.37 12.96 -6.48L12.96 -12.64C12.96 -13.67 12.8 -14.42 12.48 -14.89C12.17 -15.36 11.68 -15.6 11.02 -15.6C10.31 -15.6 9.61 -15.34 8.93 -14.81C8.24 -14.29 7.52 -13.51 6.75 -12.48C6.7 -12.4 6.71 -12.32 6.77 -12.22C6.84 -12.13 6.93 -12.09 7.03 -12.09C7.08 -12.09 7.14 -12.11 7.19 -12.17C8.37 -13.48 9.3 -14.14 9.95 -14.14C10.74 -14.14 11.14 -13.34 11.14 -11.73L11.06 -2.92C11.06 -2.24 11.04 -1.59 11 -0.97C10.96 -0.35 10.94 0 10.94 0.08C10.99 0.16 11.09 0.22 11.22 0.26C11.35 0.3 11.59 0.32 11.93 0.32C12.24 0.32 12.49 0.26 12.68 0.16C12.86 0.05 12.96 -0.08 12.96 -0.24C12.98 -3.21 13.26 -5.77 13.78 -7.9C14.31 -10.03 15.01 -11.65 15.88 -12.76C16.75 -13.86 17.7 -14.42 18.72 -14.42C20.35 -14.42 21.17 -12.88 21.17 -9.8L21.13 -2.57C21.13 -0.62 21.82 0.36 23.19 0.36C23.84 0.36 24.49 0.11 25.12 -0.39C25.75 -0.9 26.46 -1.67 27.25 -2.73C27.31 -2.78 27.29 -2.85 27.19 -2.94C27.1 -3.03 27 -3.08 26.9 -3.08Z M30.02 -1.6C31.23 -0.16 32.84 0.55 34.84 0.55C36.21 0.55 37.48 0.2 38.65 -0.51C39.82 -1.22 40.76 -2.24 41.45 -3.57C42.15 -4.9 42.5 -6.46 42.5 -8.26C42.5 -10.65 41.88 -12.5 40.64 -13.8C39.41 -15.11 37.83 -15.76 35.9 -15.76C34.43 -15.76 33.11 -15.38 31.93 -14.63C30.76 -13.88 29.85 -12.84 29.19 -11.51C28.53 -10.18 28.2 -8.72 28.2 -7.11C28.2 -4.87 28.81 -3.03 30.02 -1.6ZM39.48 -2.09C38.54 -0.99 37.39 -0.43 36.02 -0.43C34.84 -0.43 33.77 -0.84 32.82 -1.66C31.88 -2.48 31.14 -3.52 30.61 -4.8C30.08 -6.08 29.82 -7.4 29.82 -8.77C29.82 -10.61 30.3 -12.08 31.26 -13.17C32.22 -14.27 33.42 -14.81 34.84 -14.81C36.02 -14.81 37.08 -14.42 38 -13.65C38.92 -12.87 39.63 -11.85 40.13 -10.59C40.63 -9.32 40.88 -7.99 40.88 -6.6C40.88 -4.7 40.41 -3.2 39.48 -2.09Z M67.13 -13.69C66.64 -14.99 65.94 -15.64 65.01 -15.64C64.7 -15.64 64.41 -15.56 64.15 -15.38C63.88 -15.21 63.75 -14.97 63.75 -14.65C63.75 -14.39 63.82 -14.17 63.97 -13.98C64.11 -13.8 64.34 -13.57 64.66 -13.31C65.29 -12.73 65.82 -12.04 66.24 -11.24C66.66 -10.43 66.87 -9.31 66.87 -7.86C66.87 -6.46 66.64 -5.26 66.18 -4.25C65.72 -3.23 65.13 -2.47 64.42 -1.96C63.71 -1.44 62.97 -1.18 62.21 -1.18C61.5 -1.18 60.81 -1.41 60.14 -1.86C59.46 -2.3 58.87 -2.91 58.34 -3.67C59.39 -5.7 59.92 -7.99 59.92 -10.55C59.92 -12.18 59.72 -13.41 59.33 -14.24C58.93 -15.07 58.44 -15.48 57.86 -15.48C57.15 -15.48 56.61 -14.92 56.25 -13.8C55.88 -12.69 55.69 -11.32 55.69 -9.72C55.69 -7.22 56.15 -5.02 57.07 -3.12C56.1 -1.7 54.85 -0.99 53.32 -0.99C52.27 -0.99 51.41 -1.42 50.76 -2.29C50.1 -3.16 49.77 -4.61 49.77 -6.64C49.77 -7.79 49.87 -9.1 50.08 -10.57C50.29 -12.03 50.6 -13.44 50.99 -14.81C51.07 -15.02 51.09 -15.15 51.05 -15.21C51.01 -15.26 50.86 -15.29 50.6 -15.29L46.77 -15.29C45.84 -15.29 45.18 -15.21 44.77 -15.05C44.36 -14.89 44.06 -14.57 43.86 -14.08C43.67 -13.59 43.45 -12.74 43.21 -11.53C43.18 -11.45 43.2 -11.38 43.27 -11.32C43.34 -11.25 43.42 -11.22 43.53 -11.22C43.66 -11.22 43.72 -11.26 43.72 -11.34C43.83 -12.02 43.96 -12.51 44.12 -12.8C44.28 -13.09 44.53 -13.28 44.87 -13.37C45.21 -13.46 45.78 -13.51 46.57 -13.51L48.9 -13.51C49.35 -13.51 49.57 -13.34 49.57 -12.99C49.57 -12.81 49.54 -12.65 49.49 -12.52C49.46 -12.42 49.29 -11.82 48.98 -10.74C48.61 -9.66 48.32 -8.68 48.11 -7.8C47.9 -6.92 47.79 -6.1 47.79 -5.33C47.79 -3.54 48.22 -2.12 49.08 -1.07C49.93 -0.01 51.08 0.51 52.53 0.51C53.43 0.51 54.31 0.26 55.18 -0.24C56.05 -0.74 56.82 -1.45 57.51 -2.37C58.06 -1.45 58.69 -0.74 59.41 -0.24C60.12 0.26 60.84 0.51 61.58 0.51C62.55 0.51 63.53 0.11 64.5 -0.71C65.47 -1.53 66.28 -2.67 66.91 -4.15C67.54 -5.62 67.86 -7.31 67.86 -9.2C67.86 -10.89 67.61 -12.38 67.13 -13.69ZM57.83 -4.42C56.82 -6.24 56.32 -8.2 56.32 -10.31C56.32 -11.1 56.42 -11.8 56.6 -12.4C56.79 -13.01 57.11 -13.31 57.59 -13.31C58.43 -13.31 58.85 -12.15 58.85 -9.84C58.85 -7.73 58.51 -5.92 57.83 -4.42Z"></path></g></g></svg>